<mxfile host="app.diagrams.net" agent="Mozilla/5.0 (Windows NT 10.0; Win64; x64) AppleWebKit/537.36 (KHTML, like Gecko) Chrome/131.0.0.0 Safari/537.36" version="25.0.3">
  <diagram id="C5RBs43oDa-KdzZeNtuy" name="Page-1">
    <mxGraphModel dx="1050" dy="557" grid="1" gridSize="10" guides="1" tooltips="1" connect="1" arrows="1" fold="1" page="1" pageScale="1" pageWidth="827" pageHeight="1169" math="0" shadow="0">
      <root>
        <mxCell id="WIyWlLk6GJQsqaUBKTNV-0" />
        <mxCell id="WIyWlLk6GJQsqaUBKTNV-1" parent="WIyWlLk6GJQsqaUBKTNV-0" />
        <mxCell id="I2UOCBHj402mOKWglsnB-2" value="" style="edgeStyle=orthogonalEdgeStyle;rounded=0;orthogonalLoop=1;jettySize=auto;html=1;" edge="1" parent="WIyWlLk6GJQsqaUBKTNV-1" source="I2UOCBHj402mOKWglsnB-0" target="I2UOCBHj402mOKWglsnB-1">
          <mxGeometry relative="1" as="geometry" />
        </mxCell>
        <mxCell id="I2UOCBHj402mOKWglsnB-0" value="Start" style="ellipse;whiteSpace=wrap;html=1;" vertex="1" parent="WIyWlLk6GJQsqaUBKTNV-1">
          <mxGeometry x="340" y="20" width="90" height="60" as="geometry" />
        </mxCell>
        <mxCell id="I2UOCBHj402mOKWglsnB-4" value="" style="edgeStyle=orthogonalEdgeStyle;rounded=0;orthogonalLoop=1;jettySize=auto;html=1;" edge="1" parent="WIyWlLk6GJQsqaUBKTNV-1" source="I2UOCBHj402mOKWglsnB-1" target="I2UOCBHj402mOKWglsnB-3">
          <mxGeometry relative="1" as="geometry" />
        </mxCell>
        <mxCell id="I2UOCBHj402mOKWglsnB-1" value="num1,num2,min" style="rounded=0;whiteSpace=wrap;html=1;" vertex="1" parent="WIyWlLk6GJQsqaUBKTNV-1">
          <mxGeometry x="325" y="130" width="120" height="60" as="geometry" />
        </mxCell>
        <mxCell id="I2UOCBHj402mOKWglsnB-6" value="" style="edgeStyle=orthogonalEdgeStyle;rounded=0;orthogonalLoop=1;jettySize=auto;html=1;" edge="1" parent="WIyWlLk6GJQsqaUBKTNV-1" source="I2UOCBHj402mOKWglsnB-3">
          <mxGeometry relative="1" as="geometry">
            <mxPoint x="385" y="360" as="targetPoint" />
          </mxGeometry>
        </mxCell>
        <mxCell id="I2UOCBHj402mOKWglsnB-3" value="num1,num2" style="shape=parallelogram;perimeter=parallelogramPerimeter;whiteSpace=wrap;html=1;fixedSize=1;" vertex="1" parent="WIyWlLk6GJQsqaUBKTNV-1">
          <mxGeometry x="325" y="240" width="120" height="60" as="geometry" />
        </mxCell>
        <mxCell id="I2UOCBHj402mOKWglsnB-9" value="" style="edgeStyle=orthogonalEdgeStyle;rounded=0;orthogonalLoop=1;jettySize=auto;html=1;" edge="1" parent="WIyWlLk6GJQsqaUBKTNV-1" source="I2UOCBHj402mOKWglsnB-7" target="I2UOCBHj402mOKWglsnB-8">
          <mxGeometry relative="1" as="geometry" />
        </mxCell>
        <mxCell id="I2UOCBHj402mOKWglsnB-15" value="ELSE" style="edgeStyle=orthogonalEdgeStyle;rounded=0;orthogonalLoop=1;jettySize=auto;html=1;" edge="1" parent="WIyWlLk6GJQsqaUBKTNV-1" source="I2UOCBHj402mOKWglsnB-7" target="I2UOCBHj402mOKWglsnB-14">
          <mxGeometry relative="1" as="geometry" />
        </mxCell>
        <mxCell id="I2UOCBHj402mOKWglsnB-7" value="num1 &amp;lt; num2" style="rhombus;whiteSpace=wrap;html=1;" vertex="1" parent="WIyWlLk6GJQsqaUBKTNV-1">
          <mxGeometry x="325" y="360" width="120" height="80" as="geometry" />
        </mxCell>
        <mxCell id="I2UOCBHj402mOKWglsnB-11" value="" style="edgeStyle=orthogonalEdgeStyle;rounded=0;orthogonalLoop=1;jettySize=auto;html=1;" edge="1" parent="WIyWlLk6GJQsqaUBKTNV-1" source="I2UOCBHj402mOKWglsnB-8" target="I2UOCBHj402mOKWglsnB-10">
          <mxGeometry relative="1" as="geometry" />
        </mxCell>
        <mxCell id="I2UOCBHj402mOKWglsnB-8" value="min = num1" style="rounded=0;whiteSpace=wrap;html=1;" vertex="1" parent="WIyWlLk6GJQsqaUBKTNV-1">
          <mxGeometry x="325" y="490" width="120" height="60" as="geometry" />
        </mxCell>
        <mxCell id="I2UOCBHj402mOKWglsnB-13" value="" style="edgeStyle=orthogonalEdgeStyle;rounded=0;orthogonalLoop=1;jettySize=auto;html=1;" edge="1" parent="WIyWlLk6GJQsqaUBKTNV-1" source="I2UOCBHj402mOKWglsnB-10" target="I2UOCBHj402mOKWglsnB-12">
          <mxGeometry relative="1" as="geometry" />
        </mxCell>
        <mxCell id="I2UOCBHj402mOKWglsnB-10" value="Min" style="shape=parallelogram;perimeter=parallelogramPerimeter;whiteSpace=wrap;html=1;fixedSize=1;" vertex="1" parent="WIyWlLk6GJQsqaUBKTNV-1">
          <mxGeometry x="325" y="600" width="120" height="60" as="geometry" />
        </mxCell>
        <mxCell id="I2UOCBHj402mOKWglsnB-12" value="End" style="ellipse;whiteSpace=wrap;html=1;" vertex="1" parent="WIyWlLk6GJQsqaUBKTNV-1">
          <mxGeometry x="325" y="720" width="120" height="80" as="geometry" />
        </mxCell>
        <mxCell id="I2UOCBHj402mOKWglsnB-16" value="" style="edgeStyle=orthogonalEdgeStyle;rounded=0;orthogonalLoop=1;jettySize=auto;html=1;" edge="1" parent="WIyWlLk6GJQsqaUBKTNV-1" source="I2UOCBHj402mOKWglsnB-14" target="I2UOCBHj402mOKWglsnB-10">
          <mxGeometry relative="1" as="geometry" />
        </mxCell>
        <mxCell id="I2UOCBHj402mOKWglsnB-14" value="Min = num2" style="rounded=0;whiteSpace=wrap;html=1;" vertex="1" parent="WIyWlLk6GJQsqaUBKTNV-1">
          <mxGeometry x="540" y="600" width="120" height="60" as="geometry" />
        </mxCell>
      </root>
    </mxGraphModel>
  </diagram>
</mxfile>
